<svg xmlns="http://www.w3.org/2000/svg" viewBox="0 0 181.4 41.09"><defs><style>.cls-1{fill:#fff;}.cls-2{fill:#edd812;}.cls-3{fill:#e61d50;}.cls-4{fill:#3b4395;}</style></defs><title>partago_white</title><g id="Layer_2" data-name="Layer 2"><g id="Layer_1-2" data-name="Layer 1"><path class="cls-1" d="M12.33,6a10.78,10.78,0,0,1,5.89,1.65,11.66,11.66,0,0,1,4.14,4.54,14.2,14.2,0,0,1,1.52,6.67,14.26,14.26,0,0,1-1.52,6.65,11.89,11.89,0,0,1-4.11,4.59,10.56,10.56,0,0,1-5.83,1.67,10,10,0,0,1-3.36-.56A11.76,11.76,0,0,1,6.21,29.8a9.64,9.64,0,0,1-2.15-2A7.56,7.56,0,0,1,2.8,25.52l1.07-.63V39.11a2,2,0,0,1-.53,1.4,1.83,1.83,0,0,1-1.41.58,1.87,1.87,0,0,1-1.37-.56A1.92,1.92,0,0,1,0,39.11V8.27A1.94,1.94,0,0,1,.56,6.84a1.87,1.87,0,0,1,1.37-.56,1.88,1.88,0,0,1,1.41.56,2,2,0,0,1,.53,1.43v4.25l-.73-.39A6.93,6.93,0,0,1,4.33,9.81a9,9,0,0,1,2.07-2A10.66,10.66,0,0,1,9.16,6.53,10.2,10.2,0,0,1,12.33,6Zm-.44,3.58a7.65,7.65,0,0,0-4.28,1.21,8.25,8.25,0,0,0-2.9,3.28,10.65,10.65,0,0,0-1,4.79,10.83,10.83,0,0,0,1,4.79A8.19,8.19,0,0,0,7.61,27a7.65,7.65,0,0,0,4.28,1.21A7.56,7.56,0,0,0,16.15,27a8.42,8.42,0,0,0,2.9-3.33,10.7,10.7,0,0,0,1.06-4.79,10.52,10.52,0,0,0-1.06-4.79,8.48,8.48,0,0,0-2.9-3.28A7.56,7.56,0,0,0,11.89,9.62Z"/><path class="cls-1" d="M49.79,6.19a1.84,1.84,0,0,1,1.4.55,1.89,1.89,0,0,1,.53,1.38V29.44a2,2,0,0,1-.55,1.4,1.82,1.82,0,0,1-1.38.58,1.79,1.79,0,0,1-1.4-.58,2,2,0,0,1-.53-1.4V24.85l.91-.1a4.65,4.65,0,0,1-.72,2.34,9,9,0,0,1-2,2.32,10.37,10.37,0,0,1-3,1.79,9.49,9.49,0,0,1-3.65.7,10.6,10.6,0,0,1-5.94-1.71,12.09,12.09,0,0,1-4.13-4.67,14.34,14.34,0,0,1-1.53-6.72,14.34,14.34,0,0,1,1.53-6.74A11.71,11.71,0,0,1,33.5,7.47,10.56,10.56,0,0,1,39.3,5.8a10.93,10.93,0,0,1,3.87.68,10.27,10.27,0,0,1,3.12,1.83,9.23,9.23,0,0,1,2.07,2.57,5.88,5.88,0,0,1,.75,2.8l-1.25-.29V8.12a1.89,1.89,0,0,1,.53-1.38A1.84,1.84,0,0,1,49.79,6.19Zm-10,22.14a7.46,7.46,0,0,0,4.28-1.26A8.42,8.42,0,0,0,47,23.66a11,11,0,0,0,1-4.86A10.79,10.79,0,0,0,47,14a8.49,8.49,0,0,0-2.9-3.39,7.92,7.92,0,0,0-8.51,0A8.47,8.47,0,0,0,32.68,14a10.66,10.66,0,0,0-1.07,4.83,10.78,10.78,0,0,0,1.07,4.86,8.62,8.62,0,0,0,2.92,3.41A7.37,7.37,0,0,0,39.83,28.33Z"/><path class="cls-1" d="M60.81,31.42a1.82,1.82,0,0,1-1.38-.58,2,2,0,0,1-.55-1.4v-21A2,2,0,0,1,59.43,7a1.87,1.87,0,0,1,1.38-.55,1.84,1.84,0,0,1,1.4.55,2,2,0,0,1,.53,1.43v6.33l-.58-1a10.81,10.81,0,0,1,1-2.93,10.37,10.37,0,0,1,1.91-2.56,8.9,8.9,0,0,1,2.66-1.79,8.26,8.26,0,0,1,3.29-.65,3.9,3.9,0,0,1,2,.51,1.57,1.57,0,0,1,.89,1.42,2,2,0,0,1-.53,1.53,1.7,1.7,0,0,1-1.21.5A2.6,2.6,0,0,1,71,9.47a3.25,3.25,0,0,0-1.45-.29,4.8,4.8,0,0,0-2.39.68,8,8,0,0,0-2.18,1.86,9.72,9.72,0,0,0-1.59,2.71,8.79,8.79,0,0,0-.61,3.26V29.44a2,2,0,0,1-.55,1.4A1.82,1.82,0,0,1,60.81,31.42Z"/><path class="cls-1" d="M77.29,6.57H88.65a1.66,1.66,0,0,1,1.28.54,1.8,1.8,0,0,1,.51,1.3,1.66,1.66,0,0,1-.51,1.23,1.71,1.71,0,0,1-1.28.51H77.29A1.82,1.82,0,0,1,76,9.62a1.74,1.74,0,0,1,0-2.54A1.84,1.84,0,0,1,77.29,6.57ZM82.37,0a1.73,1.73,0,0,1,1.35.58A2,2,0,0,1,84.25,2v23.3A3.61,3.61,0,0,0,84.59,27a1.82,1.82,0,0,0,.9.8,3.06,3.06,0,0,0,1.08.22,2,2,0,0,0,.85-.17,1.87,1.87,0,0,1,.85-.17,1.17,1.17,0,0,1,.89.46,1.71,1.71,0,0,1,.41,1.18,1.76,1.76,0,0,1-1,1.48,4.41,4.41,0,0,1-2.28.6,16,16,0,0,1-1.66-.1,5,5,0,0,1-2-.62A4.13,4.13,0,0,1,81,28.93a7.42,7.42,0,0,1-.65-3.46V2A1.89,1.89,0,0,1,81,.58,1.88,1.88,0,0,1,82.37,0Z"/><path class="cls-1" d="M116.16,6.19a1.85,1.85,0,0,1,1.4.55,1.93,1.93,0,0,1,.53,1.38V29.44a2,2,0,0,1-.55,1.4,1.84,1.84,0,0,1-1.38.58,1.79,1.79,0,0,1-1.4-.58,2,2,0,0,1-.54-1.4V24.85l.92-.1a4.65,4.65,0,0,1-.72,2.34,9.45,9.45,0,0,1-2,2.32,10.37,10.37,0,0,1-3,1.79,9.49,9.49,0,0,1-3.65.7,10.6,10.6,0,0,1-5.94-1.71,12.19,12.19,0,0,1-4.14-4.67,14.46,14.46,0,0,1-1.52-6.72,14.46,14.46,0,0,1,1.52-6.74,11.81,11.81,0,0,1,4.14-4.59,10.56,10.56,0,0,1,5.8-1.67,10.93,10.93,0,0,1,3.87.68,10.1,10.1,0,0,1,3.11,1.83,9.09,9.09,0,0,1,2.08,2.57,5.88,5.88,0,0,1,.75,2.8l-1.26-.29V8.12a1.9,1.9,0,0,1,.54-1.38A1.84,1.84,0,0,1,116.16,6.19Zm-10,22.14a7.46,7.46,0,0,0,4.28-1.26,8.5,8.5,0,0,0,2.9-3.41,11,11,0,0,0,1-4.86,10.79,10.79,0,0,0-1-4.78,8.57,8.57,0,0,0-2.9-3.39,7.92,7.92,0,0,0-8.51,0A8.49,8.49,0,0,0,99,14,10.78,10.78,0,0,0,98,18.8,10.91,10.91,0,0,0,99,23.66,8.64,8.64,0,0,0,102,27.07,7.37,7.37,0,0,0,106.2,28.33Z"/><path class="cls-1" d="M135.49,5.8a10.44,10.44,0,0,1,3.87.7,11.36,11.36,0,0,1,3.12,1.81,10.26,10.26,0,0,1,2.08,2.32,4.39,4.39,0,0,1,.75,2.28l-.92-.58V8.12a1.89,1.89,0,0,1,.53-1.38,2.06,2.06,0,0,1,2.8,0,1.89,1.89,0,0,1,.53,1.38V29.29a12.13,12.13,0,0,1-1.66,6.6,10.28,10.28,0,0,1-4.47,3.92,14.91,14.91,0,0,1-6.24,1.28,16.08,16.08,0,0,1-3.21-.36,18.14,18.14,0,0,1-3.12-.92,3.38,3.38,0,0,1-1.69-1.14,2.32,2.32,0,0,1-.92-1.11,1.27,1.27,0,0,1,.19-1.16,1.31,1.31,0,0,1,1.14-.68,4.93,4.93,0,0,1,1.76.44c.29.09.75.26,1.38.48a17.09,17.09,0,0,0,2.15.61,11.39,11.39,0,0,0,2.37.26,8.62,8.62,0,0,0,6.26-2.15,7.61,7.61,0,0,0,2.2-5.68v-4.5l.53.25a6.22,6.22,0,0,1-1.18,2.51,10,10,0,0,1-2.16,2,10.21,10.21,0,0,1-2.82,1.41,10.54,10.54,0,0,1-3.17.5,11.21,11.21,0,0,1-6.09-1.69,12,12,0,0,1-4.28-4.64,14,14,0,0,1-1.57-6.72,14.18,14.18,0,0,1,1.57-6.77,12,12,0,0,1,4.25-4.61A11.2,11.2,0,0,1,135.49,5.8ZM136,9.38a8.1,8.1,0,0,0-4.44,1.23A8.61,8.61,0,0,0,128.53,14a10.48,10.48,0,0,0-1.11,4.86,10.3,10.3,0,0,0,1.11,4.81,8.76,8.76,0,0,0,3.05,3.41,8.44,8.44,0,0,0,8.84,0,8.62,8.62,0,0,0,3.05-3.36,10.36,10.36,0,0,0,1.11-4.88,10.53,10.53,0,0,0-1.11-4.9,8.35,8.35,0,0,0-3.05-3.36A8.08,8.08,0,0,0,136,9.38Z"/><circle class="cls-2" cx="159.98" cy="10.14" r="3.32"/><circle class="cls-3" cx="178.08" cy="19.85" r="3.32"/><path class="cls-1" d="M157.23,20.19a10.66,10.66,0,0,1,.82-4.43,6.65,6.65,0,0,1-.69-.28,5.72,5.72,0,0,1-1.84-1.41,12.94,12.94,0,0,0-1.18,6.17,12,12,0,0,0,1.88,5.91,6.27,6.27,0,0,1,2-2A9.52,9.52,0,0,1,157.23,20.19Zm18.1,5.29a6.93,6.93,0,0,1-.75-.43,10.32,10.32,0,0,1-2.39,2.45,9.63,9.63,0,0,1-3.75,1.67,6.41,6.41,0,0,1-.33,2.8,12,12,0,0,0,5.79-2.18,13,13,0,0,0,3.54-3.71A6,6,0,0,1,175.33,25.48Zm2.49-13.9a12.26,12.26,0,0,0-5-4.32A12.18,12.18,0,0,0,166.34,6a12.51,12.51,0,0,0-1.85.29,6.13,6.13,0,0,1,1.25,2.38l0,.14.12,0c.27,0,.55-.09.82-.12a9.4,9.4,0,0,1,8.77,4.28,9.64,9.64,0,0,1,.54,1,6.2,6.2,0,0,1,2.87-.3A11.12,11.12,0,0,0,177.82,11.58Z"/><circle class="cls-4" cx="161.77" cy="29.8" r="3.32"/></g></g></svg>