<svg xmlns="http://www.w3.org/2000/svg" viewBox="0 0 27.09 27.18">
    <defs>
        <style>
            .cls-1 {
                fill: #edd812;
            }

            .cls-2 {
                fill: #e61d50;
            }

            .cls-3 {
                fill: #fff;
            }

            .cls-4 {
                fill: #3b4395;
            }
        </style>
    </defs>
    <title>partago_logo_without background</title>
    <g id="Layer_2" data-name="Layer 2">
        <g id="Layer_1-2" data-name="Layer 1">
            <circle class="cls-1" cx="5.66" cy="4.2" r="3.32" />
            <circle class="cls-2" cx="23.77" cy="13.91" r="3.32" />
            <path class="cls-3"
                d="M2.91,14.25a10.67,10.67,0,0,1,.83-4.43,4.53,4.53,0,0,1-.69-.28A5.65,5.65,0,0,1,1.2,8.13,13,13,0,0,0,0,14.3,12.2,12.2,0,0,0,1.9,20.21a6.27,6.27,0,0,1,2-2A9.79,9.79,0,0,1,2.91,14.25ZM21,19.54a4.93,4.93,0,0,1-.74-.43,10.36,10.36,0,0,1-2.4,2.45,9.63,9.63,0,0,1-3.75,1.67,6.27,6.27,0,0,1-.33,2.8,12,12,0,0,0,5.8-2.18,12.83,12.83,0,0,0,3.54-3.71A5.88,5.88,0,0,1,21,19.54ZM23.5,5.65a12.18,12.18,0,0,0-5-4.33,12.17,12.17,0,0,0-8.32-1,6.29,6.29,0,0,1,1.24,2.39s0,.09,0,.14l.12,0q.4-.08.81-.12a9,9,0,0,1,5,.91A8.91,8.91,0,0,1,21.16,7a7.94,7.94,0,0,1,.54,1,6.22,6.22,0,0,1,2.87-.3A11,11,0,0,0,23.5,5.65Z" />
            <circle class="cls-4" cx="7.46" cy="23.86" r="3.32" />
        </g>
    </g>
</svg>